<?xml version="1.0" standalone="no"?><!DOCTYPE svg PUBLIC "-//W3C//DTD SVG 1.1//EN" "http://www.w3.org/Graphics/SVG/1.1/DTD/svg11.dtd"><svg t="1561017519493" class="icon" style="" viewBox="0 0 1024 1024" version="1.1" xmlns="http://www.w3.org/2000/svg" p-id="43759" xmlns:xlink="http://www.w3.org/1999/xlink" width="200" height="200"><defs><style type="text/css"></style></defs><path d="M853.132 187.493h-92.275v151.351h-501.79v-151.35h-90.588c-18.927 0-34.272 15.343-34.272 34.27v703.333c0 18.927 15.344 34.271 34.272 34.271h684.654c18.927 0 34.27-15.343 34.27-34.27V221.764c0-18.927-15.344-34.272-34.271-34.272z m-76.076 293.445l-296.98 363.61c1.355 4.51-5.348 5.185-9.857 1.502L254.142 669.111c-4.51-3.684-5.186-10.386-1.502-14.896l36.047-44.135c3.683-4.51 10.386-5.185 14.896-1.503l163.966 135.7 254.013-311.005c3.684-6.287 10.386-6.962 14.897-3.28l41.886 34.21c4.505 3.684 7.1 7.13-1.289 16.736zM639.36 143.388v-27.814c0-28.274-22.919-51.194-51.193-51.194H433.194C404.92 64.38 382 87.3 382 115.574v27.814h-60.19v138.028h376.576V143.388H639.36z m-128.428 87.209c-31.185 0-56.466-25.282-56.466-56.467s25.282-56.467 56.466-56.467c31.186 0 56.467 25.282 56.467 56.467 0 35.754-25.282 56.467-56.467 56.467z" fill="" p-id="43760"></path></svg>