<?xml version="1.0" standalone="no"?><!DOCTYPE svg PUBLIC "-//W3C//DTD SVG 1.1//EN" "http://www.w3.org/Graphics/SVG/1.1/DTD/svg11.dtd"><svg class="icon" width="200px" height="200.00px" viewBox="0 0 1024 1024" version="1.1" xmlns="http://www.w3.org/2000/svg"><path fill="#000000" d="M220.592 98.897h272.367c2.911 2.242 3.04 5.487 3.049 8.717 0.141 52.219 0.213 104.439-0.052 156.658-0.045 8.86-2.14 10.614-11.173 10.994-2.289 0.096-4.58 0.09-6.87 0.09-122.992 0.008-245.983 0.029-368.975-0.072-5.066-0.004-10.688 1.568-14.9-3.063v-1.376c5.541-19.676 18.05-35.776 27.656-53.336 16.019-29.282 32.81-58.143 49.445-87.084 10.658-18.543 25.697-30.741 48.279-30.91 0.437-0.003 0.828-0.286 1.174-0.618zM927.646 270.846v1.376c-1.721 2.11-4.008 2.864-6.658 2.971-3.206 0.129-6.41 0.164-9.616 0.165-122.075 0.006-244.151 0.01-366.226-0.002-19.526-0.002-19.55-0.029-19.554-19.327-0.01-48.097-0.053-96.195 0.059-144.292 0.01-4.435-1.088-9.32 3.075-12.839h272.367c17.877 1.027 32.287 8.988 43.646 22.475 6.658 7.905 10.568 17.59 15.704 26.474 20.69 35.791 40.657 71.996 61.543 107.674 2.826 4.829 3.464 10.336 5.66 15.325zM926.327 307.544c-3.452-3.852-8.117-2.616-12.295-2.618-268.891-0.094-537.783-0.091-806.674-0.062-2.063 0-4.125 0.052-6.185 0.192-2.337 0.158-4.595 0.469-5.994 2.7-0.886 2.922-0.43 5.919-0.43 8.874-0.026 193.963-0.023 387.927-0.023 581.905 0.008 10.16 1.029 19.741 9.476 27.182 5.146 4.532 11.381 5.03 17.348 6.788h777.208c6.742-1.537 13.615-2.048 19.261-7.275 8.086-7.487 8.858-16.905 8.939-26.778 0-194.02 0.003-388.055-0.033-582.09-0.001-2.936 0.635-5.953-0.598-8.818z m-409.079 535.79c-122.208 0.492-222.528-98.836-222.889-220.685-0.365-123.089 98.8-223.199 221.548-223.659 121.862-0.456 222.446 99.744 222.819 221.969 0.372 121.681-99.427 221.883-221.478 222.375zM483.141 573.935c0.001-20.173-0.042-40.345 0.016-60.518 0.036-12.422 6.775-19.872 17.75-19.841 10.896 0.031 17.871 7.625 17.896 19.93 0.076 37.136 0.109 74.272-0.071 111.407-0.023 4.719 1.437 7.385 5.591 9.749 21.901 12.46 43.597 25.278 65.405 37.901 4.435 2.567 8.443 5.522 11.144 9.962 4.485 7.37 3.726 14.858-2.052 20.754-5.675 5.791-12.717 7.04-20.001 2.525-28.602-17.73-57.962-34.234-85.792-53.217-7.05-4.809-10.332-10.627-10.068-19.514 0.583-19.698 0.181-39.424 0.182-59.138z" /></svg>