<?xml version="1.0" standalone="no"?><!DOCTYPE svg PUBLIC "-//W3C//DTD SVG 1.1//EN" "http://www.w3.org/Graphics/SVG/1.1/DTD/svg11.dtd"><svg class="icon" width="200px" height="188.76px" viewBox="0 0 1085 1024" version="1.1" xmlns="http://www.w3.org/2000/svg"><path fill="#000000" d="M857.009403 438.678779a228.092802 228.092802 0 1 0 228.092802 228.092802 228.092802 228.092802 0 0 0-228.092802-228.092802z m17.5456 324.593603a26.3184 26.3184 0 0 1-52.6368 0v-95.097153a10.702816 10.702816 0 0 1-2.456384-1.75456l-49.654049-49.478592A26.3184 26.3184 0 1 1 807.179898 579.04358l49.654049 49.478593a28.07296 28.07296 0 0 1 3.684576 5.614592 26.3184 26.3184 0 0 1 14.211936 23.335648z m-315.820803-96.500801a298.275202 298.275202 0 0 1 386.003204-285.116002v-106.326337a48.074944 48.074944 0 0 0-2.982752-17.5456 33.161184 33.161184 0 0 0-15.264673-24.388384L498.026424 6.179736a65.269633 65.269633 0 0 0-55.444096 0L14.118772 233.570714a35.0912 35.0912 0 0 0-12.983744 31.406624 49.303136 49.303136 0 0 0-1.052736 10.351904v457.062884A50.531328 50.531328 0 0 0 15.873332 772.045182l418.462563 240.725634c20.001984 12.28192 36.670304 19.475616 36.670305-5.965504 0 25.44112 17.5456 17.5456 37.021216 5.965504l177.736929-101.939937A298.275202 298.275202 0 0 1 558.7342 666.771581zM368.539895 552.549724a35.0912 35.0912 0 0 1-47.022208 16.141952L116.058709 468.5063a35.0912 35.0912 0 0 1 30.880256-62.988705l204.93261 100.185377a35.0912 35.0912 0 0 1 16.66832 46.846752z" /></svg>