<?xml version="1.0" standalone="no"?><!DOCTYPE svg PUBLIC "-//W3C//DTD SVG 1.1//EN" "http://www.w3.org/Graphics/SVG/1.1/DTD/svg11.dtd"><svg class="icon" width="200px" height="200.00px" viewBox="0 0 1024 1024" version="1.1" xmlns="http://www.w3.org/2000/svg"><path fill="#000000" d="M589.488839 682.932044c-34.231639 0-61.989843-27.817556-61.989843-62.161758l0-62.163805c0-34.344203 27.758204-62.159712 61.989843-62.159712l372.121206 0 0 186.485275L589.488839 682.932044 589.488839 682.932044zM636.040061 545.665751c-25.716708 0-46.551222 20.832468-46.551222 46.605457 0 25.774013 20.833491 46.609551 46.551222 46.609551 25.65838 0 46.493917-20.835538 46.493917-46.609551C682.533978 566.498218 661.697417 545.665751 636.040061 545.665751L636.040061 545.665751zM496.502028 558.607504 496.502028 620.771309c0 51.486628 41.668005 93.26822 92.986811 93.26822l310.129316 0 0 124.328633c0 51.488675-41.670052 93.266174-93.045139 93.266174L155.433048 931.634336c-51.373041 0-93.043093-41.777499-93.043093-93.266174L62.389956 247.740384c0-51.488675 41.670052-93.210915 93.043093-93.210915l298.605865 0-72.834842 30.425963L139.935076 184.955432c-25.716708 0-46.551222 20.890796-46.551222 46.603411 0 25.77913 20.833491 46.612621 46.551222 46.612621l759.683079 0 0 187.16168L589.488839 465.333144C538.170033 465.334167 496.502028 507.114736 496.502028 558.607504L496.502028 558.607504zM186.428993 341.013721l-61.992913 0 0 62.161758 30.996968 0 0-31.05325 30.996968 0L186.430016 341.013721 186.428993 341.013721zM186.428993 434.283987l-61.992913 0 0 62.163805 32.302707 0-1.305739-31.113625 30.996968 0.627287L186.430016 434.283987 186.428993 434.283987zM186.428993 527.498996l-61.992913 0 0 62.161758 31.622208 0-0.62524-31.05325 30.996968 0L186.430016 527.498996 186.428993 527.498996zM186.428993 620.771309l-61.992913 0 0 62.161758 31.622208 0-0.62524-31.110555 30.996968 0.680499L186.430016 620.771309 186.428993 620.771309zM186.428993 714.038506l-61.992913 0 0 62.165852 30.996968 0 0-31.110555 30.996968 0L186.430016 714.038506 186.428993 714.038506zM186.428993 807.254537l-61.992913 0 0 62.163805 31.622208 0-0.62524-30.430056 30.996968 0L186.430016 807.254537 186.428993 807.254537zM310.471101 245.812475 674.813133 92.365664l69.769017 153.446811L310.471101 245.812475 310.471101 245.812475zM733.568305 154.529469l73.004711 0c27.136034 0 51.375088 11.862165 68.348668 30.425963L748.385778 184.955432 733.568305 154.529469 733.568305 154.529469z" /></svg>